<svg width="170" height="49" viewBox="0 0 170 49" fill="none" xmlns="http://www.w3.org/2000/svg">
<path d="M12.08 39.44C9.46667 39.44 7.52 38.8133 6.24 37.56C4.98667 36.28 4.36 34.3467 4.36 31.76V14.04L10.36 11.8V31.96C10.36 32.8667 10.6133 33.5467 11.12 34C11.6267 34.4533 12.4133 34.68 13.48 34.68C13.88 34.68 14.2533 34.64 14.6 34.56C14.9467 34.48 15.2933 34.3867 15.64 34.28V38.84C15.2933 39.0267 14.8 39.1733 14.16 39.28C13.5467 39.3867 12.8533 39.44 12.08 39.44ZM0.56 23.16V18.6H15.64V23.16H0.56ZM28.2128 39.4C25.9728 39.4 23.9995 38.96 22.2928 38.08C20.6128 37.1733 19.2928 35.92 18.3328 34.32C17.3995 32.6933 16.9328 30.8267 16.9328 28.72C16.9328 26.6133 17.3995 24.7733 18.3328 23.2C19.2928 21.6267 20.6128 20.4 22.2928 19.52C23.9995 18.64 25.9728 18.2 28.2128 18.2C30.4795 18.2 32.4528 18.64 34.1328 19.52C35.8395 20.4 37.1595 21.6267 38.0928 23.2C39.0261 24.7733 39.4928 26.6133 39.4928 28.72C39.4928 30.8267 39.0128 32.6933 38.0528 34.32C37.1195 35.92 35.7995 37.1733 34.0928 38.08C32.4128 38.96 30.4528 39.4 28.2128 39.4ZM28.2128 34.68C29.1461 34.68 29.9861 34.44 30.7328 33.96C31.5061 33.48 32.1195 32.8 32.5728 31.92C33.0261 31.0133 33.2528 29.9333 33.2528 28.68C33.2528 26.84 32.7595 25.4267 31.7728 24.44C30.8128 23.4267 29.6261 22.92 28.2128 22.92C26.7995 22.92 25.5995 23.4267 24.6128 24.44C23.6528 25.4533 23.1728 26.8667 23.1728 28.68C23.1728 29.9333 23.3995 31.0133 23.8528 31.92C24.3061 32.8 24.9061 33.48 25.6528 33.96C26.4261 34.44 27.2795 34.68 28.2128 34.68ZM52.3534 39.4C50.1134 39.4 48.1401 38.96 46.4334 38.08C44.7534 37.1733 43.4334 35.92 42.4734 34.32C41.5401 32.6933 41.0734 30.8267 41.0734 28.72C41.0734 26.6133 41.5401 24.7733 42.4734 23.2C43.4334 21.6267 44.7534 20.4 46.4334 19.52C48.1401 18.64 50.1134 18.2 52.3534 18.2C54.6201 18.2 56.5934 18.64 58.2734 19.52C59.9801 20.4 61.3001 21.6267 62.2334 23.2C63.1668 24.7733 63.6334 26.6133 63.6334 28.72C63.6334 30.8267 63.1534 32.6933 62.1934 34.32C61.2601 35.92 59.9401 37.1733 58.2334 38.08C56.5534 38.96 54.5934 39.4 52.3534 39.4ZM52.3534 34.68C53.2868 34.68 54.1268 34.44 54.8734 33.96C55.6468 33.48 56.2601 32.8 56.7134 31.92C57.1668 31.0133 57.3934 29.9333 57.3934 28.68C57.3934 26.84 56.9001 25.4267 55.9134 24.44C54.9534 23.4267 53.7668 22.92 52.3534 22.92C50.9401 22.92 49.7401 23.4267 48.7534 24.44C47.7934 25.4533 47.3134 26.8667 47.3134 28.68C47.3134 29.9333 47.5401 31.0133 47.9934 31.92C48.4468 32.8 49.0468 33.48 49.7934 33.96C50.5668 34.44 51.4201 34.68 52.3534 34.68ZM66.8141 39V10.2H72.8141V39H66.8141ZM85.8353 39.4C82.8486 39.4 80.4753 38.8 78.7153 37.6C76.9553 36.4 75.9953 34.7467 75.8353 32.64H81.1953C81.3286 33.5467 81.782 34.24 82.5553 34.72C83.3553 35.1733 84.4486 35.4 85.8353 35.4C87.0886 35.4 87.9953 35.2267 88.5553 34.88C89.142 34.5067 89.4353 33.9867 89.4353 33.32C89.4353 32.8133 89.262 32.4267 88.9153 32.16C88.5953 31.8667 87.9953 31.6267 87.1153 31.44L83.8353 30.76C81.4086 30.2533 79.622 29.4933 78.4753 28.48C77.3286 27.44 76.7553 26.1067 76.7553 24.48C76.7553 22.5067 77.5153 20.9733 79.0353 19.88C80.5553 18.76 82.6753 18.2 85.3953 18.2C88.0886 18.2 90.2353 18.7467 91.8353 19.84C93.4353 20.9067 94.3153 22.4 94.4753 24.32H89.1153C89.0086 23.6267 88.6353 23.1067 87.9953 22.76C87.3553 22.3867 86.4486 22.2 85.2753 22.2C84.2086 22.2 83.4086 22.36 82.8753 22.68C82.3686 22.9733 82.1153 23.4 82.1153 23.96C82.1153 24.44 82.3286 24.8267 82.7553 25.12C83.182 25.3867 83.8886 25.6267 84.8753 25.84L88.5553 26.6C90.6086 27.0267 92.1553 27.8267 93.1953 29C94.262 30.1467 94.7953 31.5067 94.7953 33.08C94.7953 35.08 94.0086 36.64 92.4353 37.76C90.8886 38.8533 88.6886 39.4 85.8353 39.4Z" fill="#09123A"/>
<path d="M98.4 39V10.2H104.4V39H98.4ZM112.6 39V26.36C112.6 25.24 112.307 24.4 111.72 23.84C111.16 23.28 110.333 23 109.24 23C108.307 23 107.467 23.2133 106.72 23.64C106 24.0667 105.427 24.6533 105 25.4C104.6 26.1467 104.4 27.0267 104.4 28.04L103.88 23.12C104.547 21.6267 105.52 20.44 106.8 19.56C108.107 18.6533 109.707 18.2 111.6 18.2C113.867 18.2 115.6 18.84 116.8 20.12C118 21.3733 118.6 23.0667 118.6 25.2V39H112.6ZM129.102 39.4C127.662 39.4 126.422 39.0933 125.382 38.48C124.368 37.84 123.595 37 123.062 35.96C122.528 34.8933 122.262 33.7067 122.262 32.4V18.6H128.262V31.24C128.262 32.36 128.542 33.2 129.102 33.76C129.662 34.32 130.448 34.6 131.462 34.6C132.368 34.6 133.168 34.3867 133.862 33.96C134.555 33.5333 135.102 32.9467 135.502 32.2C135.928 31.4267 136.142 30.5467 136.142 29.56L136.662 34.48C135.995 35.9467 135.022 37.1333 133.742 38.04C132.462 38.9467 130.915 39.4 129.102 39.4ZM136.262 39V34.2H136.142V18.6H142.142V39H136.262ZM159.395 39.4C157.448 39.4 155.861 38.9467 154.635 38.04C153.435 37.1333 152.728 35.8933 152.515 34.32L152.835 34.28V39H146.955V10.2H152.955V23.12L152.595 23.04C152.888 21.5467 153.661 20.3733 154.915 19.52C156.195 18.64 157.795 18.2 159.715 18.2C161.555 18.2 163.141 18.64 164.475 19.52C165.835 20.3733 166.875 21.5867 167.595 23.16C168.341 24.7333 168.715 26.5867 168.715 28.72C168.715 30.88 168.328 32.76 167.555 34.36C166.781 35.96 165.701 37.2 164.315 38.08C162.928 38.96 161.288 39.4 159.395 39.4ZM157.715 34.6C159.128 34.6 160.275 34.0933 161.155 33.08C162.035 32.0667 162.475 30.6267 162.475 28.76C162.475 26.8933 162.021 25.4667 161.115 24.48C160.235 23.4933 159.075 23 157.635 23C156.248 23 155.101 23.5067 154.195 24.52C153.315 25.5067 152.875 26.9333 152.875 28.8C152.875 30.6667 153.315 32.1067 154.195 33.12C155.101 34.1067 156.275 34.6 157.715 34.6Z" fill="url(#paint0_linear_1581_5)" fill-opacity="0.785294"/>
<defs>
<linearGradient id="paint0_linear_1581_5" x1="69.5" y1="2.0971e-06" x2="176" y2="49" gradientUnits="userSpaceOnUse">
<stop stop-color="#09123A"/>
<stop offset="1" stop-color="#326C7E"/>
</linearGradient>
</defs>
</svg>
