<svg width="48" height="47" viewBox="0 0 48 47" fill="none" xmlns="http://www.w3.org/2000/svg">
<g clip-path="url(#clip0_3017_686)">
<rect y="24" width="48" height="23" rx="2" fill="#09123A" fill-opacity="0.93"/>
</g>
<path d="M6.04 19.22C4.73333 19.22 3.76 18.9067 3.12 18.28C2.49333 17.64 2.18 16.6733 2.18 15.38V6.52L5.18 5.4V15.48C5.18 15.9333 5.30667 16.2733 5.56 16.5C5.81333 16.7267 6.20667 16.84 6.74 16.84C6.94 16.84 7.12667 16.82 7.3 16.78C7.47333 16.74 7.64667 16.6933 7.82 16.64V18.92C7.64667 19.0133 7.4 19.0867 7.08 19.14C6.77333 19.1933 6.42667 19.22 6.04 19.22ZM0.28 11.08V8.8H7.82V11.08H0.28ZM14.1064 19.2C12.9864 19.2 11.9997 18.98 11.1464 18.54C10.3064 18.0867 9.64641 17.46 9.16641 16.66C8.69974 15.8467 8.46641 14.9133 8.46641 13.86C8.46641 12.8067 8.69974 11.8867 9.16641 11.1C9.64641 10.3133 10.3064 9.7 11.1464 9.26C11.9997 8.82 12.9864 8.6 14.1064 8.6C15.2397 8.6 16.2264 8.82 17.0664 9.26C17.9197 9.7 18.5797 10.3133 19.0464 11.1C19.5131 11.8867 19.7464 12.8067 19.7464 13.86C19.7464 14.9133 19.5064 15.8467 19.0264 16.66C18.5597 17.46 17.8997 18.0867 17.0464 18.54C16.2064 18.98 15.2264 19.2 14.1064 19.2ZM14.1064 16.84C14.5731 16.84 14.9931 16.72 15.3664 16.48C15.7531 16.24 16.0597 15.9 16.2864 15.46C16.5131 15.0067 16.6264 14.4667 16.6264 13.84C16.6264 12.92 16.3797 12.2133 15.8864 11.72C15.4064 11.2133 14.8131 10.96 14.1064 10.96C13.3997 10.96 12.7997 11.2133 12.3064 11.72C11.8264 12.2267 11.5864 12.9333 11.5864 13.84C11.5864 14.4667 11.6997 15.0067 11.9264 15.46C12.1531 15.9 12.4531 16.24 12.8264 16.48C13.2131 16.72 13.6397 16.84 14.1064 16.84ZM26.1767 19.2C25.0567 19.2 24.0701 18.98 23.2167 18.54C22.3767 18.0867 21.7167 17.46 21.2367 16.66C20.7701 15.8467 20.5367 14.9133 20.5367 13.86C20.5367 12.8067 20.7701 11.8867 21.2367 11.1C21.7167 10.3133 22.3767 9.7 23.2167 9.26C24.0701 8.82 25.0567 8.6 26.1767 8.6C27.3101 8.6 28.2967 8.82 29.1367 9.26C29.9901 9.7 30.6501 10.3133 31.1167 11.1C31.5834 11.8867 31.8167 12.8067 31.8167 13.86C31.8167 14.9133 31.5767 15.8467 31.0967 16.66C30.6301 17.46 29.9701 18.0867 29.1167 18.54C28.2767 18.98 27.2967 19.2 26.1767 19.2ZM26.1767 16.84C26.6434 16.84 27.0634 16.72 27.4367 16.48C27.8234 16.24 28.1301 15.9 28.3567 15.46C28.5834 15.0067 28.6967 14.4667 28.6967 13.84C28.6967 12.92 28.4501 12.2133 27.9567 11.72C27.4767 11.2133 26.8834 10.96 26.1767 10.96C25.4701 10.96 24.8701 11.2133 24.3767 11.72C23.8967 12.2267 23.6567 12.9333 23.6567 13.84C23.6567 14.4667 23.7701 15.0067 23.9967 15.46C24.2234 15.9 24.5234 16.24 24.8967 16.48C25.2834 16.72 25.7101 16.84 26.1767 16.84ZM33.407 19V4.6H36.407V19H33.407ZM42.9177 19.2C41.4243 19.2 40.2377 18.9 39.3577 18.3C38.4777 17.7 37.9977 16.8733 37.9177 15.82H40.5977C40.6643 16.2733 40.891 16.62 41.2777 16.86C41.6777 17.0867 42.2243 17.2 42.9177 17.2C43.5443 17.2 43.9977 17.1133 44.2777 16.94C44.571 16.7533 44.7177 16.4933 44.7177 16.16C44.7177 15.9067 44.631 15.7133 44.4577 15.58C44.2977 15.4333 43.9977 15.3133 43.5577 15.22L41.9177 14.88C40.7043 14.6267 39.811 14.2467 39.2377 13.74C38.6643 13.22 38.3777 12.5533 38.3777 11.74C38.3777 10.7533 38.7577 9.98667 39.5177 9.44C40.2777 8.88 41.3377 8.6 42.6977 8.6C44.0443 8.6 45.1177 8.87333 45.9177 9.42C46.7177 9.95333 47.1577 10.7 47.2377 11.66H44.5577C44.5043 11.3133 44.3177 11.0533 43.9977 10.88C43.6777 10.6933 43.2243 10.6 42.6377 10.6C42.1043 10.6 41.7043 10.68 41.4377 10.84C41.1843 10.9867 41.0577 11.2 41.0577 11.48C41.0577 11.72 41.1643 11.9133 41.3777 12.06C41.591 12.1933 41.9443 12.3133 42.4377 12.42L44.2777 12.8C45.3043 13.0133 46.0777 13.4133 46.5977 14C47.131 14.5733 47.3977 15.2533 47.3977 16.04C47.3977 17.04 47.0043 17.82 46.2177 18.38C45.4443 18.9267 44.3443 19.2 42.9177 19.2Z" fill="#09123A"/>
<path d="M9.02 42V29.76H11.57V42H9.02ZM15.055 42V36.628C15.055 36.152 14.9303 35.795 14.681 35.557C14.443 35.319 14.0917 35.2 13.627 35.2C13.2303 35.2 12.8733 35.2907 12.556 35.472C12.25 35.6533 12.0063 35.9027 11.825 36.22C11.655 36.5373 11.57 36.9113 11.57 37.342L11.349 35.251C11.6323 34.6163 12.046 34.112 12.59 33.738C13.1453 33.3527 13.8253 33.16 14.63 33.16C15.5933 33.16 16.33 33.432 16.84 33.976C17.35 34.5087 17.605 35.2283 17.605 36.135V42H15.055ZM22.0682 42.17C21.4562 42.17 20.9292 42.0397 20.4872 41.779C20.0565 41.507 19.7278 41.15 19.5012 40.708C19.2745 40.2547 19.1612 39.7503 19.1612 39.195V33.33H21.7112V38.702C21.7112 39.178 21.8302 39.535 22.0682 39.773C22.3062 40.011 22.6405 40.13 23.0712 40.13C23.4565 40.13 23.7965 40.0393 24.0912 39.858C24.3858 39.6767 24.6182 39.4273 24.7882 39.11C24.9695 38.7813 25.0602 38.4073 25.0602 37.988L25.2812 40.079C24.9978 40.7023 24.5842 41.2067 24.0402 41.592C23.4962 41.9773 22.8388 42.17 22.0682 42.17ZM25.1112 42V39.96H25.0602V33.33H27.6102V42H25.1112ZM34.9427 42.17C34.1154 42.17 33.4411 41.9773 32.9197 41.592C32.4097 41.2067 32.1094 40.6797 32.0187 40.011L32.1547 39.994V42H29.6557V29.76H32.2057V35.251L32.0527 35.217C32.1774 34.5823 32.5061 34.0837 33.0387 33.721C33.5827 33.347 34.2627 33.16 35.0787 33.16C35.8607 33.16 36.5351 33.347 37.1017 33.721C37.6797 34.0837 38.1217 34.5993 38.4277 35.268C38.7451 35.9367 38.9037 36.7243 38.9037 37.631C38.9037 38.549 38.7394 39.348 38.4107 40.028C38.0821 40.708 37.6231 41.235 37.0337 41.609C36.4444 41.983 35.7474 42.17 34.9427 42.17ZM34.2287 40.13C34.8294 40.13 35.3167 39.9147 35.6907 39.484C36.0647 39.0533 36.2517 38.4413 36.2517 37.648C36.2517 36.8547 36.0591 36.2483 35.6737 35.829C35.2997 35.4097 34.8067 35.2 34.1947 35.2C33.6054 35.2 33.1181 35.4153 32.7327 35.846C32.3587 36.2653 32.1717 36.8717 32.1717 37.665C32.1717 38.4583 32.3587 39.0703 32.7327 39.501C33.1181 39.9203 33.6167 40.13 34.2287 40.13Z" fill="url(#paint0_linear_3017_686)" fill-opacity="0.785294"/>
<defs>
<linearGradient id="paint0_linear_3017_686" x1="9.94595" y1="31.6429" x2="62.5563" y2="54.269" gradientUnits="userSpaceOnUse">
<stop stop-color="#DDFDFD" stop-opacity="0.93"/>
<stop offset="1" stop-color="#AFECFF" stop-opacity="0.785294"/>
</linearGradient>
<clipPath id="clip0_3017_686">
<rect y="24" width="48" height="23" rx="2" fill="white"/>
</clipPath>
</defs>
</svg>
